<mxfile host="app.diagrams.net" modified="2024-04-05T17:20:51.382Z" agent="Mozilla/5.0 (Windows NT 10.0; Win64; x64) AppleWebKit/537.36 (KHTML, like Gecko) Chrome/123.0.0.0 Safari/537.36" etag="LufpXVqx7Z6RJOQIrUXC" version="24.2.2" type="google">
  <diagram name="Página-1" id="KK5F9JUYOYK10UTot8Vi">
    <mxGraphModel dx="794" dy="454" grid="1" gridSize="10" guides="1" tooltips="1" connect="1" arrows="1" fold="1" page="1" pageScale="1" pageWidth="827" pageHeight="1169" math="0" shadow="0">
      <root>
        <mxCell id="0" />
        <mxCell id="1" parent="0" />
        <mxCell id="315sluHbIqEWbfv2pi6x-10" value="" style="edgeStyle=orthogonalEdgeStyle;rounded=1;orthogonalLoop=1;jettySize=auto;html=1;entryX=0.507;entryY=0.171;entryDx=0;entryDy=0;entryPerimeter=0;" parent="1" source="315sluHbIqEWbfv2pi6x-7" target="315sluHbIqEWbfv2pi6x-8" edge="1">
          <mxGeometry relative="1" as="geometry">
            <mxPoint x="419" y="259" as="targetPoint" />
            <Array as="points" />
          </mxGeometry>
        </mxCell>
        <mxCell id="315sluHbIqEWbfv2pi6x-7" value="início" style="strokeWidth=2;html=1;shape=mxgraph.flowchart.terminator;whiteSpace=wrap;rounded=1;" parent="1" vertex="1">
          <mxGeometry x="370" y="90" width="100" height="60" as="geometry" />
        </mxCell>
        <mxCell id="315sluHbIqEWbfv2pi6x-13" value="" style="edgeStyle=orthogonalEdgeStyle;rounded=1;orthogonalLoop=1;jettySize=auto;html=1;" parent="1" source="315sluHbIqEWbfv2pi6x-8" target="315sluHbIqEWbfv2pi6x-12" edge="1">
          <mxGeometry relative="1" as="geometry" />
        </mxCell>
        <mxCell id="315sluHbIqEWbfv2pi6x-8" value="valor_dolar,&lt;div&gt;valor_reais&lt;/div&gt;" style="html=1;strokeWidth=2;shape=manualInput;whiteSpace=wrap;rounded=1;size=26;arcSize=11;" parent="1" vertex="1">
          <mxGeometry x="370" y="200" width="100" height="70" as="geometry" />
        </mxCell>
        <mxCell id="315sluHbIqEWbfv2pi6x-16" value="" style="edgeStyle=orthogonalEdgeStyle;rounded=1;orthogonalLoop=1;jettySize=auto;html=1;" parent="1" source="315sluHbIqEWbfv2pi6x-12" target="315sluHbIqEWbfv2pi6x-14" edge="1">
          <mxGeometry relative="1" as="geometry" />
        </mxCell>
        <mxCell id="315sluHbIqEWbfv2pi6x-12" value="convertido =&lt;div&gt;valor_dolar,&amp;nbsp;&lt;span style=&quot;background-color: initial;&quot;&gt;valor_reais&lt;/span&gt;&lt;/div&gt;" style="rounded=1;whiteSpace=wrap;html=1;absoluteArcSize=1;arcSize=14;strokeWidth=2;" parent="1" vertex="1">
          <mxGeometry x="290" y="330" width="260" height="90" as="geometry" />
        </mxCell>
        <mxCell id="315sluHbIqEWbfv2pi6x-17" value="" style="edgeStyle=orthogonalEdgeStyle;rounded=1;orthogonalLoop=1;jettySize=auto;html=1;" parent="1" source="315sluHbIqEWbfv2pi6x-14" target="315sluHbIqEWbfv2pi6x-15" edge="1">
          <mxGeometry relative="1" as="geometry" />
        </mxCell>
        <mxCell id="315sluHbIqEWbfv2pi6x-14" value="&quot;o valor convertido é de: &quot;,&lt;span style=&quot;background-color: initial;&quot;&gt;convertido&lt;/span&gt;" style="strokeWidth=2;html=1;shape=mxgraph.flowchart.display;whiteSpace=wrap;rounded=1;" parent="1" vertex="1">
          <mxGeometry x="340" y="460" width="160" height="90" as="geometry" />
        </mxCell>
        <mxCell id="315sluHbIqEWbfv2pi6x-15" value="fim" style="strokeWidth=2;html=1;shape=mxgraph.flowchart.terminator;whiteSpace=wrap;rounded=1;" parent="1" vertex="1">
          <mxGeometry x="370" y="585" width="100" height="60" as="geometry" />
        </mxCell>
      </root>
    </mxGraphModel>
  </diagram>
</mxfile>
